<?xml version="1.0" standalone="no"?>
<!DOCTYPE svg PUBLIC "-//W3C//DTD SVG 20010904//EN"
 "http://www.w3.org/TR/2001/REC-SVG-20010904/DTD/svg10.dtd">
<svg version="1.0" xmlns="http://www.w3.org/2000/svg"
 width="650.000000pt" height="650.000000pt" viewBox="0 0 650.000000 650.000000"
 preserveAspectRatio="xMidYMid meet">
<metadata>
Created by potrace 1.11, written by Peter Selinger 2001-2013
</metadata>
<g transform="translate(0.000000,650.000000) scale(0.100000,-0.100000)"
fill="#000000" stroke="none">
<path d="M3234 6029 c-3 -5 -11 -9 -17 -7 -7 1 -34 -9 -62 -22 -27 -13 -53
-23 -57 -22 -5 1 -8 -2 -8 -7 0 -8 -34 -24 -65 -30 -5 -1 -14 -9 -18 -17 -5
-8 -12 -12 -18 -9 -5 4 -9 2 -9 -3 0 -5 -6 -9 -12 -10 -27 -2 -48 -8 -55 -17
-4 -4 -2 -5 6 0 9 5 12 4 8 -2 -4 -6 -20 -13 -36 -16 -16 -3 -36 -13 -44 -22
-9 -9 -19 -16 -22 -15 -26 1 -35 -2 -35 -15 0 -8 -3 -14 -7 -13 -5 1 -21 -4
-38 -11 -16 -7 -32 -12 -33 -11 -2 1 -9 -6 -16 -16 -7 -9 -18 -14 -23 -11 -6
4 -13 0 -17 -8 -3 -8 -1 -15 4 -15 6 0 10 -4 10 -10 0 -6 -3 -9 -7 -9 -5 1
-10 0 -13 -1 -5 -2 -25 -5 -75 -13 -53 -9 -84 -20 -78 -30 3 -5 0 -8 -8 -5 -8
3 -20 -1 -27 -9 -8 -7 -18 -11 -23 -8 -5 4 -9 2 -9 -4 0 -5 -10 -13 -22 -17
-13 -4 -29 -14 -36 -23 -8 -9 -11 -11 -8 -4 7 14 -52 -14 -72 -34 -8 -7 -18
-11 -23 -8 -5 4 -9 1 -9 -5 0 -6 -4 -8 -10 -5 -5 3 -10 1 -10 -5 0 -6 -4 -8
-10 -5 -9 5 -14 -7 -12 -27 1 -3 -5 -11 -13 -18 -12 -10 -13 -8 -10 9 5 27 -6
27 -23 0 -8 -12 -19 -18 -28 -15 -9 3 -27 0 -42 -8 -15 -8 -36 -16 -47 -18
-11 -1 -26 -10 -33 -18 -12 -13 -13 -13 -7 0 4 8 -1 6 -9 -4 -9 -11 -16 -16
-16 -12 0 5 -6 4 -12 -2 -7 -6 -17 -11 -23 -12 -22 -3 -105 -35 -105 -41 0 -3
12 -4 28 -1 15 2 23 1 19 -4 -4 -4 -15 -9 -25 -11 -9 -2 -30 -5 -47 -8 -16 -3
-38 -6 -47 -6 -10 0 -18 -4 -18 -8 0 -4 -9 -17 -21 -30 l-21 -22 -15 20 c-14
20 -40 20 -28 0 4 -5 1 -9 -6 -9 -8 0 -7 -5 2 -17 13 -15 12 -15 -8 -5 -27 15
-36 15 -28 2 3 -5 1 -10 -5 -10 -6 0 -8 -4 -5 -10 3 -5 2 -10 -4 -10 -5 0 -12
6 -14 13 -4 9 -6 9 -6 -1 -1 -8 -6 -10 -13 -6 -8 5 -7 0 2 -11 14 -17 14 -18
-6 -7 -17 9 -24 9 -34 -3 -7 -8 -19 -15 -27 -15 -8 0 -11 -5 -7 -12 4 -6 3 -8
-4 -4 -6 3 -14 1 -17 -5 -4 -5 -13 -8 -21 -5 -8 3 -17 -1 -20 -8 -3 -8 -15
-13 -26 -11 -15 3 -18 0 -13 -13 3 -9 3 -13 -1 -9 -4 4 -14 1 -22 -6 -13 -9
-14 -9 -8 0 5 9 2 11 -10 6 -13 -5 -15 -3 -9 7 5 9 4 11 -4 6 -9 -6 -9 -11 1
-24 11 -13 10 -15 -4 -9 -11 4 -21 0 -27 -11 -6 -9 -11 -13 -11 -9 0 4 -12 -4
-27 -18 -15 -14 -34 -25 -41 -25 -7 0 -11 -4 -8 -9 3 -5 -12 -16 -34 -25 -22
-9 -40 -19 -40 -22 0 -3 7 -4 15 -1 20 8 26 -5 9 -21 -7 -7 -16 -12 -19 -12
-55 2 -88 -2 -76 -9 11 -7 9 -10 -8 -16 -11 -3 -21 -11 -21 -16 0 -5 -7 -9
-15 -9 -9 0 -18 -7 -21 -15 -4 -8 -12 -15 -20 -15 -8 0 -14 -4 -14 -9 0 -8
-37 -24 -52 -22 -5 1 -8 -4 -8 -10 0 -5 -4 -7 -10 -4 -5 3 -10 2 -10 -4 0 -5
-16 -15 -34 -22 -19 -7 -33 -16 -30 -21 3 -4 -2 -5 -10 -2 -9 3 -16 1 -16 -6
0 -6 -4 -9 -10 -5 -5 3 -18 -3 -28 -13 -16 -16 -43 -31 -57 -32 -3 0 -14 -9
-25 -20 -12 -12 -26 -18 -32 -14 -6 4 -9 3 -6 -2 5 -9 -27 -45 -39 -43 -4 0
-9 -5 -12 -12 -2 -6 1 -9 7 -5 6 4 8 -2 5 -14 -3 -11 -16 -23 -29 -26 -13 -3
-21 -11 -18 -19 3 -7 0 -16 -6 -20 -9 -6 -9 -10 1 -16 12 -7 12 -9 0 -9 -11 0
-11 -3 0 -17 8 -9 9 -14 3 -10 -8 4 -11 -25 -11 -99 0 -57 4 -107 10 -111 5
-3 3 -9 -4 -14 -12 -8 -12 -10 0 -18 12 -8 12 -14 1 -42 -18 -42 -18 -73 0
-95 8 -10 10 -15 4 -11 -16 9 -24 -26 -11 -48 6 -12 6 -16 -1 -11 -6 3 -13 2
-17 -4 -3 -5 -2 -10 4 -10 5 0 8 -11 5 -24 -2 -14 0 -28 6 -31 13 -8 13 -45 0
-45 -5 0 -7 -7 -4 -15 4 -8 10 -13 14 -10 4 3 10 -4 13 -15 3 -13 -1 -24 -14
-31 -15 -7 -18 -16 -13 -36 6 -21 4 -24 -7 -18 -11 7 -12 6 -3 -6 12 -16 12
-29 0 -48 -6 -10 -5 -12 3 -7 9 6 10 0 5 -20 -5 -21 -4 -25 7 -20 8 4 5 0 -5
-8 -11 -9 -15 -16 -10 -16 6 0 10 -11 10 -25 0 -14 -5 -25 -10 -25 -6 0 -5 -4
3 -9 8 -5 14 -25 14 -48 0 -26 7 -44 20 -55 17 -15 18 -18 4 -18 -10 0 -17 -5
-17 -11 0 -5 -4 -8 -8 -5 -5 3 -8 -7 -7 -22 1 -15 -3 -33 -9 -41 -9 -12 -8
-13 3 -6 11 6 13 3 9 -13 -4 -12 -3 -22 1 -22 3 0 4 -32 1 -70 -3 -42 -1 -75
5 -82 7 -8 6 -9 -4 -3 -10 6 -12 4 -6 -6 12 -19 14 -49 3 -49 -5 0 -6 -5 -3
-10 4 -6 11 -8 16 -5 5 4 9 -1 9 -10 0 -11 -5 -15 -14 -12 -8 3 -17 -1 -20 -9
-3 -8 -2 -13 2 -10 5 3 9 -20 10 -50 0 -31 3 -58 6 -62 3 -3 1 -11 -5 -19 -6
-7 -8 -13 -3 -13 5 0 7 -29 6 -65 -3 -44 0 -65 8 -65 6 0 8 -5 5 -10 -4 -6
-12 -7 -18 -3 -7 4 -6 0 2 -10 7 -9 10 -17 7 -17 -4 0 0 -7 9 -16 10 -10 13
-24 9 -38 -3 -11 -7 -25 -8 -31 0 -5 -5 -13 -11 -17 -7 -5 -6 -8 1 -8 6 0 11
-42 13 -112 4 -148 5 -157 14 -151 4 2 7 0 7 -6 0 -5 -9 -12 -19 -16 -15 -5
-19 -13 -15 -38 11 -84 11 -108 2 -113 -5 -3 -5 -11 2 -19 8 -9 8 -15 0 -20
-6 -3 -7 -12 -3 -18 4 -7 9 -32 10 -57 1 -25 2 -47 3 -50 1 -3 2 -13 1 -22 -1
-10 4 -18 11 -18 9 -1 8 -3 -3 -10 -11 -6 -15 -21 -13 -52 1 -24 4 -61 5 -83
1 -22 6 -44 10 -50 4 -5 7 -14 7 -18 -1 -41 78 -120 94 -94 5 8 8 7 8 -5 0
-10 4 -18 9 -18 5 0 17 -7 25 -15 9 -9 32 -18 53 -19 31 -3 37 -8 35 -23 -2
-10 -1 -15 4 -11 4 4 12 4 18 -1 10 -7 51 -31 161 -90 17 -9 33 -20 36 -25 4
-5 14 -6 22 -3 8 3 24 -5 36 -19 12 -14 26 -22 31 -19 6 3 10 1 10 -5 0 -6 4
-9 9 -6 5 3 12 -1 15 -10 4 -9 13 -14 21 -10 8 3 15 1 15 -4 0 -5 16 -14 35
-21 19 -7 35 -17 35 -23 0 -5 2 -7 5 -4 3 3 49 -16 101 -43 52 -26 101 -46
109 -43 8 4 15 1 15 -5 0 -6 6 -10 13 -8 7 1 11 -6 9 -17 -2 -11 1 -15 7 -11
6 3 11 2 11 -4 0 -5 16 -15 35 -22 19 -7 35 -16 35 -20 0 -4 11 -10 25 -13 16
-4 23 -11 20 -19 -4 -7 1 -3 10 8 14 17 17 18 25 5 5 -8 10 -18 10 -23 0 -8
50 -31 63 -29 4 1 7 -3 7 -8 0 -6 7 -10 15 -10 8 0 15 -5 15 -11 0 -5 4 -8 9
-5 5 3 14 -1 21 -9 7 -8 17 -15 23 -15 5 0 26 -10 46 -22 20 -13 40 -23 46
-23 17 -2 88 -38 125 -65 19 -14 35 -23 35 -22 0 2 13 -1 28 -7 16 -6 33 -11
38 -11 5 0 9 -4 9 -9 0 -5 14 -14 30 -21 17 -7 30 -16 30 -20 0 -4 11 -11 25
-14 14 -4 25 -11 25 -17 0 -6 4 -8 9 -4 5 3 15 -1 23 -8 7 -8 18 -12 24 -10 6
2 17 -3 24 -12 7 -8 21 -15 32 -15 10 0 17 -4 14 -9 -3 -4 13 -14 34 -21 22
-7 40 -16 40 -20 0 -3 16 -12 35 -20 19 -8 35 -18 35 -24 0 -5 3 -6 7 -3 3 4
12 2 20 -4 7 -6 13 -8 13 -3 0 4 12 -3 27 -17 14 -13 22 -17 18 -9 -8 13 -7
13 11 0 10 -8 21 -17 24 -20 5 -6 48 -32 118 -72 18 -10 36 -16 40 -14 4 2 16
-3 27 -11 15 -12 16 -14 3 -10 -27 10 -11 -16 21 -33 16 -8 46 -24 67 -35 22
-11 41 -23 44 -26 7 -8 44 -22 53 -21 4 1 7 -3 7 -9 0 -5 4 -7 10 -4 5 3 10 2
10 -4 0 -12 158 -74 170 -66 5 3 12 0 15 -6 5 -7 12 -3 22 10 13 20 15 20 38
5 16 -10 25 -12 25 -5 0 6 11 11 25 11 14 0 25 5 25 12 0 6 3 8 7 5 3 -4 12
-2 20 4 7 6 13 8 13 3 0 -4 7 1 16 12 8 10 13 12 9 4 -4 -9 0 -7 9 4 8 10 19
15 24 12 5 -3 15 1 22 9 7 8 16 12 21 9 5 -3 9 0 9 7 0 7 3 10 6 6 3 -3 14 2
25 11 11 9 24 18 29 18 6 1 15 2 21 3 5 0 7 7 3 14 -4 6 -4 9 0 5 11 -9 67 12
60 23 -3 5 5 9 18 9 22 1 22 1 4 15 -19 15 -19 15 2 15 12 0 30 9 39 19 9 11
21 17 26 14 5 -3 13 1 18 8 7 12 9 12 9 0 0 -9 6 -7 19 7 10 12 23 22 28 22
12 0 107 62 111 72 2 5 10 8 17 8 8 0 18 7 23 16 5 9 13 16 18 16 20 1 54 18
54 28 0 5 3 9 8 8 4 -1 17 3 30 10 12 7 22 9 22 5 0 -4 7 0 14 10 8 10 18 19
23 19 14 1 57 21 86 41 15 10 27 15 27 11 0 -4 7 1 16 12 8 10 12 13 9 5 -5
-9 1 -7 19 5 20 13 24 19 14 25 -9 6 -4 9 14 9 15 0 29 4 33 9 3 6 15 8 26 6
14 -3 19 0 16 8 -3 8 4 14 15 14 11 1 26 7 34 14 20 17 114 59 114 52 0 -3 8
1 18 9 26 23 99 58 106 51 3 -4 6 1 6 11 0 9 4 15 9 12 5 -3 20 3 33 14 14 11
28 16 32 13 3 -3 6 0 6 7 0 7 3 11 6 7 3 -3 23 5 44 18 21 13 41 21 44 18 3
-4 6 -1 6 5 0 6 16 16 35 23 19 7 35 16 35 20 0 3 14 9 30 13 27 5 43 26 20
26 -5 0 -10 3 -10 8 0 4 17 8 37 10 20 1 42 7 50 13 7 6 13 8 13 4 0 -4 6 -3
13 3 21 18 171 92 185 92 7 0 11 4 8 8 -3 5 4 14 14 22 10 8 17 18 14 24 -3 6
1 3 9 -7 13 -15 16 -15 27 -2 7 8 16 13 20 10 5 -3 12 -1 15 5 4 6 28 20 53
32 26 12 55 28 65 36 9 8 17 11 17 7 0 -4 9 0 20 10 12 11 26 20 33 21 7 1 44
20 84 43 40 23 79 41 87 41 8 0 18 9 21 20 4 12 14 20 23 18 27 -4 90 44 107
82 20 45 24 68 26 146 1 39 6 64 13 64 6 1 0 7 -14 15 -20 11 -22 15 -9 20 13
5 15 21 12 93 -2 48 -5 99 -7 115 -1 15 0 27 4 27 6 0 6 27 0 113 0 5 -6 5
-12 1 -10 -6 -10 -5 -1 7 7 8 14 51 16 95 2 44 7 85 11 92 4 7 3 12 -2 12 -5
0 -8 23 -7 50 1 28 -2 53 -7 56 -5 3 -4 12 2 19 8 9 7 17 -5 28 -9 9 -11 17
-4 19 5 2 11 30 12 63 1 33 6 66 10 73 5 6 5 12 0 12 -4 0 -8 45 -8 99 -1 67
3 98 10 93 5 -3 4 2 -4 11 -7 9 -18 14 -25 10 -6 -4 -5 1 3 10 8 10 12 34 10
61 -2 24 -1 42 4 39 4 -2 7 5 7 17 0 14 -4 19 -12 14 -9 -5 -9 -2 1 9 7 9 10
17 6 17 -4 0 -2 6 4 14 7 8 8 17 4 19 -5 3 -8 37 -7 76 1 55 -1 71 -12 71 -18
0 -17 10 1 34 11 14 12 24 4 39 -6 10 -7 17 -2 14 4 -3 9 23 9 56 2 107 9 197
16 197 3 0 4 9 1 21 -4 12 0 25 8 30 9 5 10 9 2 9 -12 0 -12 17 -1 35 4 6 3
17 -2 25 -5 9 -5 19 1 26 6 7 10 31 11 53 0 23 5 41 10 41 6 0 5 7 -2 15 -10
12 -10 15 1 15 11 0 11 2 -1 10 -11 7 -12 12 -3 21 9 9 9 18 2 32 -8 14 -8 18
0 13 15 -10 9 27 -8 47 -10 13 -9 17 6 26 10 6 13 11 7 11 -14 0 -14 82 1 93
7 5 7 9 0 15 -6 4 -12 34 -13 67 -2 33 -9 63 -15 67 -9 6 -9 8 1 8 9 0 9 7 -3
30 -9 17 -12 30 -8 30 5 0 0 5 -10 11 -9 6 -15 15 -11 20 7 11 -68 89 -85 89
-6 0 -11 3 -11 8 0 8 -49 32 -67 32 -7 0 -13 5 -13 11 0 5 -4 7 -10 4 -5 -3
-10 -2 -10 3 0 10 -56 37 -64 31 -2 -2 -14 5 -26 16 -12 11 -25 19 -29 19 -3
-1 -15 2 -26 7 -70 27 -85 35 -85 42 0 5 -5 5 -10 2 -6 -3 -13 0 -16 8 -3 9
-13 13 -25 10 -11 -3 -19 0 -19 8 0 7 -3 9 -6 6 -7 -7 -59 19 -82 41 -12 11
-41 16 -79 15 -7 -1 -13 4 -13 9 0 6 -8 7 -17 4 -15 -6 -14 -4 2 14 16 18 16
20 2 14 -9 -3 -23 1 -32 10 -9 9 -25 16 -35 16 -10 0 -21 7 -24 16 -5 13 -9
14 -20 4 -12 -9 -18 -6 -31 19 -8 17 -18 31 -21 31 -3 0 -2 -6 2 -12 4 -7 -1
-6 -12 3 -19 16 -41 26 -58 27 -5 0 -12 5 -15 10 -8 12 -74 47 -83 44 -5 -1
-8 2 -8 7 0 7 -27 20 -53 25 -4 0 -11 6 -15 11 -12 18 -65 49 -57 34 3 -8 1
-7 -7 2 -7 9 -17 17 -23 17 -5 1 -18 9 -27 17 -10 8 -18 12 -18 9 0 -4 -7 -1
-15 6 -8 7 -15 9 -15 4 0 -5 -4 -3 -8 4 -8 12 -18 15 -82 28 -14 3 -29 10 -35
16 -7 8 -6 9 3 4 6 -4 12 -3 12 3 0 5 -14 12 -30 16 -17 4 -28 10 -25 15 2 4
-8 10 -23 13 -15 3 -41 17 -57 31 -17 14 -38 26 -48 26 -10 0 -15 5 -12 10 3
6 -1 10 -9 10 -15 0 -119 52 -143 72 -7 6 -20 8 -28 4 -9 -3 -13 -2 -10 4 6 9
-41 35 -57 32 -5 -1 -8 3 -8 9 0 5 -4 7 -10 4 -5 -3 -10 -1 -10 5 0 6 -4 8
-10 5 -5 -3 -10 0 -10 8 0 12 -29 24 -75 31 -5 1 -9 8 -7 15 1 7 -2 10 -7 7
-5 -4 -12 -2 -16 3 -3 6 -21 8 -40 6 -20 -3 -35 0 -35 5 0 6 -10 10 -22 10
-23 1 -23 1 2 16 14 8 18 13 10 11 -8 -2 -22 2 -32 10 -14 13 -33 20 -61 22
-5 1 -5 7 -1 14 4 6 4 9 0 5 -5 -4 -24 2 -44 12 -19 11 -39 17 -44 14 -5 -3
-7 -1 -6 4 2 6 0 9 -4 8 -4 0 -14 8 -23 19 -9 11 -14 13 -10 5 4 -10 2 -9 -8
3 -8 9 -18 17 -24 17 -5 0 -52 23 -104 50 -51 28 -106 56 -121 61 -16 6 -25
16 -21 22 4 6 0 8 -10 4 -9 -3 -29 0 -44 8 -15 8 -30 10 -33 5 -6 -10 -50 -9
-50 1 0 11 -40 18 -46 8z m-1664 -809 c0 -5 -5 -10 -11 -10 -5 0 -7 5 -4 10 3
6 8 10 11 10 2 0 4 -4 4 -10z"/>
</g>
</svg>
