<svg width="55" height="54" viewBox="0 0 55 54" fill="none" xmlns="http://www.w3.org/2000/svg">
<path d="M32.9994 26.3367C32.9844 25.7733 32.6569 25.2547 32.1913 25.0466C31.7527 24.8513 31.263 24.9505 30.8153 25.3155C29.9441 24.6528 28.7635 24.2142 27.4446 24.1342L28.0154 22.0308L29.8149 22.415C29.872 23.0745 30.3948 23.5899 31.0256 23.5899C31.6956 23.5899 32.2423 23.0073 32.2423 22.2934C32.2423 21.5795 31.6986 21 31.0256 21C30.548 21 30.1334 21.2945 29.9351 21.7235L27.5498 21.2145L26.7597 24.1246C25.3597 24.1694 24.1009 24.6176 23.1877 25.3155C22.74 24.9505 22.2504 24.8513 21.8117 25.0466C21.3431 25.2547 21.0156 25.7733 21.0006 26.3367C20.9856 26.8682 21.253 27.3388 21.7186 27.6077C21.6946 27.7549 21.6826 27.9086 21.6826 28.0623C21.6826 30.236 24.0619 32 27 32C29.9381 32 32.3174 30.236 32.3174 28.0623C32.3174 27.9086 32.3054 27.7581 32.2814 27.6077C32.747 27.3388 33.0144 26.8682 32.9994 26.3367ZM24.3863 27.4188C24.3863 26.9226 24.7619 26.5224 25.2275 26.5224C25.6932 26.5224 26.0687 26.9226 26.0687 27.4188C26.0687 27.915 25.6932 28.3152 25.2275 28.3152C24.7619 28.3152 24.3863 27.915 24.3863 27.4188ZM24.9271 29.7558L25.2876 29.4037C26.3391 30.3321 27.6609 30.3321 28.7124 29.4037L29.0729 29.7558C27.8111 30.8763 26.1889 30.8763 24.9271 29.7558ZM28.7725 28.3152C28.3068 28.3152 27.9313 27.915 27.9313 27.4188C27.9313 26.9226 28.3068 26.5224 28.7725 26.5224C29.2381 26.5224 29.6137 26.9226 29.6137 27.4188C29.6137 27.915 29.2381 28.3152 28.7725 28.3152Z" fill="#30FEFD"/>
<g filter="url(#filter0_d)">
<rect x="12.8281" y="12.5" width="29" height="29" rx="4.5" stroke="#30FEFD"/>
</g>
<defs>
<filter id="filter0_d" x="0.328125" y="0" width="54" height="54" filterUnits="userSpaceOnUse" color-interpolation-filters="sRGB">
<feFlood flood-opacity="0" result="BackgroundImageFix"/>
<feColorMatrix in="SourceAlpha" type="matrix" values="0 0 0 0 0 0 0 0 0 0 0 0 0 0 0 0 0 0 127 0"/>
<feMorphology radius="2" operator="dilate" in="SourceAlpha" result="effect1_dropShadow"/>
<feOffset/>
<feGaussianBlur stdDeviation="5"/>
<feColorMatrix type="matrix" values="0 0 0 0 0.211765 0 0 0 0 0.815686 0 0 0 0 1 0 0 0 0.25 0"/>
<feBlend mode="normal" in2="BackgroundImageFix" result="effect1_dropShadow"/>
<feBlend mode="normal" in="SourceGraphic" in2="effect1_dropShadow" result="shape"/>
</filter>
</defs>
</svg>
