<svg width="54" height="54" viewBox="0 0 54 54" fill="none" xmlns="http://www.w3.org/2000/svg">
<path fill-rule="evenodd" clip-rule="evenodd" d="M21.7048 26.7346L27.2103 24.3132C29.832 23.1998 30.3768 23.0064 30.7318 23.0001C30.8099 22.9987 30.9846 23.0184 31.0976 23.1121C31.1932 23.1912 31.2194 23.2982 31.232 23.3732C31.2446 23.4481 31.2603 23.6191 31.2478 23.7526C31.1057 25.2767 30.491 28.9755 30.1782 30.6826C30.0459 31.4049 29.7855 31.6471 29.5331 31.6708C28.9849 31.7223 28.5686 31.3008 28.0376 30.9455L25.9308 29.5005C24.9987 28.8734 25.6029 28.5287 26.1341 27.9654C26.2731 27.8179 28.6886 25.5747 28.7353 25.3712C28.741 25.3457 28.7466 25.2509 28.6914 25.2008C28.6362 25.1506 28.5547 25.168 28.4959 25.1814C28.4126 25.2007 27.0853 26.0965 24.5139 27.8688C24.1371 28.1329 23.7959 28.2617 23.4901 28.2549C23.1531 28.2475 22.5047 28.0603 22.0227 27.9003C21.4314 27.7041 20.9616 27.6004 21.0025 27.2671C21.0238 27.0936 21.2579 26.9161 21.7048 26.7346L21.7048 26.7346Z" fill="#30FEFD"/>
<g filter="url(#filter0_d)">
<rect x="12.5" y="12.5" width="29" height="29" rx="4.5" stroke="#30FEFD"/>
</g>
<defs>
<filter id="filter0_d" x="0" y="0" width="54" height="54" filterUnits="userSpaceOnUse" color-interpolation-filters="sRGB">
<feFlood flood-opacity="0" result="BackgroundImageFix"/>
<feColorMatrix in="SourceAlpha" type="matrix" values="0 0 0 0 0 0 0 0 0 0 0 0 0 0 0 0 0 0 127 0"/>
<feMorphology radius="2" operator="dilate" in="SourceAlpha" result="effect1_dropShadow"/>
<feOffset/>
<feGaussianBlur stdDeviation="5"/>
<feColorMatrix type="matrix" values="0 0 0 0 0.211765 0 0 0 0 0.815686 0 0 0 0 1 0 0 0 0.25 0"/>
<feBlend mode="normal" in2="BackgroundImageFix" result="effect1_dropShadow"/>
<feBlend mode="normal" in="SourceGraphic" in2="effect1_dropShadow" result="shape"/>
</filter>
</defs>
</svg>
